<svg width="64" height="64" viewBox="0 0 64 64" fill="none" xmlns="http://www.w3.org/2000/svg">
<g clip-path="url(#clip0_12_3504)">
<rect width="64" height="64" rx="12.8" fill="#758E67"/>
<path d="M42.7043 -17.9142C43.0948 -18.3046 43.7278 -18.3047 44.1183 -17.9142L52.9572 -9.07533C53.2337 -8.79869 53.3231 -8.38625 53.1867 -8.01967L42.2121 21.4676L71.7004 10.494L71.839 10.453C72.1674 10.3826 72.514 10.4814 72.756 10.7235L81.5949 19.5624C81.9853 19.9528 81.9853 20.5859 81.5949 20.9764L53.6642 48.9071C53.2737 49.2976 52.6407 49.2976 52.2502 48.9071L45.6838 42.3417C45.2932 41.9511 45.2932 41.3171 45.6838 40.9266L61.7941 24.8172L37.7287 33.495C37.3642 33.6263 36.9568 33.5346 36.6828 33.2606L30.4191 26.9979C30.1453 26.7239 30.0544 26.3164 30.1857 25.952L38.8634 1.88658L22.7531 17.9969C22.3626 18.3871 21.7295 18.3873 21.339 17.9969L14.7736 11.4305C14.3831 11.04 14.3831 10.407 14.7736 10.0165L42.7043 -17.9142Z" fill="white"/>
<path d="M10.1592 14.6298C10.5497 14.2393 11.1828 14.2393 11.5733 14.6298L18.1397 21.1952C18.5301 21.5857 18.5299 22.2187 18.1397 22.6093L2.13383 38.6152L26.0967 30.0409C26.4608 29.9107 26.8682 30.0019 27.1416 30.2753L33.4043 36.538C33.6777 36.8114 33.769 37.2189 33.6387 37.5829L25.0645 61.5458L41.0703 45.54C41.4609 45.1498 42.094 45.1495 42.4844 45.54L49.0498 52.1064C49.4404 52.4969 49.4404 53.1299 49.0498 53.5204L21.2959 81.2743C20.9054 81.6647 20.2724 81.6648 19.8819 81.2743L11.043 72.4355C10.767 72.1594 10.6773 71.7479 10.8125 71.3818L21.6592 42.0204L-7.70211 52.8671C-8.06826 53.0024 -8.47979 52.9126 -8.75582 52.6366L-17.5947 43.7978C-17.9852 43.4073 -17.9851 42.7742 -17.5947 42.3837L10.1592 14.6298Z" fill="white"/>
</g>
<defs>
<clipPath id="clip0_12_3504">
<rect width="64" height="64" rx="12.8" fill="white"/>
</clipPath>
</defs>
</svg>
